<mxfile host="app.diagrams.net" modified="2023-06-22T13:34:11.661Z" agent="Mozilla/5.0 (Windows NT 10.0; Win64; x64) AppleWebKit/537.36 (KHTML, like Gecko) Chrome/114.0.0.0 Safari/537.36 Edg/114.0.1823.51" etag="LJ6pCLMsndLy_1w9PBRl" version="21.4.0" type="github">
  <diagram name="第 1 页" id="6c7Dq5-AY6w6WpyVM683">
    <mxGraphModel dx="1117" dy="791" grid="1" gridSize="10" guides="1" tooltips="1" connect="1" arrows="1" fold="1" page="1" pageScale="1" pageWidth="827" pageHeight="1169" math="0" shadow="0">
      <root>
        <mxCell id="0" />
        <mxCell id="1" parent="0" />
        <mxCell id="11V3AMWHq4y9PStT7rWr-9" style="edgeStyle=orthogonalEdgeStyle;rounded=0;orthogonalLoop=1;jettySize=auto;html=1;exitX=1;exitY=0.5;exitDx=0;exitDy=0;entryX=0;entryY=0.5;entryDx=0;entryDy=0;" edge="1" parent="1" source="11V3AMWHq4y9PStT7rWr-1" target="11V3AMWHq4y9PStT7rWr-4">
          <mxGeometry relative="1" as="geometry" />
        </mxCell>
        <mxCell id="11V3AMWHq4y9PStT7rWr-1" value="x(2k)" style="ellipse;whiteSpace=wrap;html=1;" vertex="1" parent="1">
          <mxGeometry x="100" y="160" width="70" height="40" as="geometry" />
        </mxCell>
        <mxCell id="11V3AMWHq4y9PStT7rWr-10" style="edgeStyle=orthogonalEdgeStyle;rounded=0;orthogonalLoop=1;jettySize=auto;html=1;exitX=1;exitY=0.5;exitDx=0;exitDy=0;entryX=0;entryY=0.5;entryDx=0;entryDy=0;" edge="1" parent="1" source="11V3AMWHq4y9PStT7rWr-2" target="11V3AMWHq4y9PStT7rWr-7">
          <mxGeometry relative="1" as="geometry" />
        </mxCell>
        <mxCell id="11V3AMWHq4y9PStT7rWr-11" style="edgeStyle=orthogonalEdgeStyle;rounded=0;orthogonalLoop=1;jettySize=auto;html=1;exitX=1;exitY=0.5;exitDx=0;exitDy=0;entryX=0;entryY=0.5;entryDx=0;entryDy=0;" edge="1" parent="1" source="11V3AMWHq4y9PStT7rWr-2" target="11V3AMWHq4y9PStT7rWr-5">
          <mxGeometry relative="1" as="geometry" />
        </mxCell>
        <mxCell id="11V3AMWHq4y9PStT7rWr-2" value="x(2k+1)" style="ellipse;whiteSpace=wrap;html=1;" vertex="1" parent="1">
          <mxGeometry x="100" y="320" width="70" height="40" as="geometry" />
        </mxCell>
        <mxCell id="11V3AMWHq4y9PStT7rWr-16" style="edgeStyle=orthogonalEdgeStyle;rounded=0;orthogonalLoop=1;jettySize=auto;html=1;exitX=1;exitY=0.5;exitDx=0;exitDy=0;entryX=0;entryY=0.5;entryDx=0;entryDy=0;" edge="1" parent="1" source="11V3AMWHq4y9PStT7rWr-3" target="11V3AMWHq4y9PStT7rWr-15">
          <mxGeometry relative="1" as="geometry" />
        </mxCell>
        <mxCell id="11V3AMWHq4y9PStT7rWr-3" value="H0" style="rounded=0;whiteSpace=wrap;html=1;" vertex="1" parent="1">
          <mxGeometry x="230" y="110" width="100" height="50" as="geometry" />
        </mxCell>
        <mxCell id="11V3AMWHq4y9PStT7rWr-18" style="edgeStyle=orthogonalEdgeStyle;rounded=0;orthogonalLoop=1;jettySize=auto;html=1;exitX=1;exitY=0.5;exitDx=0;exitDy=0;entryX=0.5;entryY=0;entryDx=0;entryDy=0;" edge="1" parent="1" source="11V3AMWHq4y9PStT7rWr-4" target="11V3AMWHq4y9PStT7rWr-14">
          <mxGeometry relative="1" as="geometry" />
        </mxCell>
        <mxCell id="11V3AMWHq4y9PStT7rWr-4" value="H1" style="rounded=0;whiteSpace=wrap;html=1;" vertex="1" parent="1">
          <mxGeometry x="230" y="200" width="100" height="50" as="geometry" />
        </mxCell>
        <mxCell id="11V3AMWHq4y9PStT7rWr-13" style="edgeStyle=orthogonalEdgeStyle;rounded=0;orthogonalLoop=1;jettySize=auto;html=1;exitX=1;exitY=0.5;exitDx=0;exitDy=0;entryX=0;entryY=0.5;entryDx=0;entryDy=0;" edge="1" parent="1" source="11V3AMWHq4y9PStT7rWr-5" target="11V3AMWHq4y9PStT7rWr-12">
          <mxGeometry relative="1" as="geometry" />
        </mxCell>
        <mxCell id="11V3AMWHq4y9PStT7rWr-5" value="H1" style="rounded=0;whiteSpace=wrap;html=1;" vertex="1" parent="1">
          <mxGeometry x="230" y="360" width="100" height="50" as="geometry" />
        </mxCell>
        <mxCell id="11V3AMWHq4y9PStT7rWr-19" style="edgeStyle=orthogonalEdgeStyle;rounded=0;orthogonalLoop=1;jettySize=auto;html=1;exitX=1;exitY=0.5;exitDx=0;exitDy=0;" edge="1" parent="1" source="11V3AMWHq4y9PStT7rWr-7" target="11V3AMWHq4y9PStT7rWr-14">
          <mxGeometry relative="1" as="geometry" />
        </mxCell>
        <mxCell id="11V3AMWHq4y9PStT7rWr-7" value="H0" style="rounded=0;whiteSpace=wrap;html=1;" vertex="1" parent="1">
          <mxGeometry x="230" y="270" width="100" height="50" as="geometry" />
        </mxCell>
        <mxCell id="11V3AMWHq4y9PStT7rWr-8" value="" style="endArrow=classic;html=1;rounded=0;exitX=1;exitY=0.5;exitDx=0;exitDy=0;entryX=0;entryY=0.5;entryDx=0;entryDy=0;" edge="1" parent="1" source="11V3AMWHq4y9PStT7rWr-1" target="11V3AMWHq4y9PStT7rWr-3">
          <mxGeometry width="50" height="50" relative="1" as="geometry">
            <mxPoint x="390" y="430" as="sourcePoint" />
            <mxPoint x="440" y="380" as="targetPoint" />
            <Array as="points">
              <mxPoint x="200" y="180" />
              <mxPoint x="200" y="135" />
            </Array>
          </mxGeometry>
        </mxCell>
        <mxCell id="11V3AMWHq4y9PStT7rWr-17" style="edgeStyle=orthogonalEdgeStyle;rounded=0;orthogonalLoop=1;jettySize=auto;html=1;exitX=1;exitY=0.5;exitDx=0;exitDy=0;entryX=0.5;entryY=1;entryDx=0;entryDy=0;" edge="1" parent="1" source="11V3AMWHq4y9PStT7rWr-12" target="11V3AMWHq4y9PStT7rWr-15">
          <mxGeometry relative="1" as="geometry" />
        </mxCell>
        <mxCell id="11V3AMWHq4y9PStT7rWr-12" value="D" style="rounded=0;whiteSpace=wrap;html=1;" vertex="1" parent="1">
          <mxGeometry x="410" y="360" width="50" height="50" as="geometry" />
        </mxCell>
        <mxCell id="11V3AMWHq4y9PStT7rWr-24" style="edgeStyle=orthogonalEdgeStyle;rounded=0;orthogonalLoop=1;jettySize=auto;html=1;exitX=1;exitY=0.5;exitDx=0;exitDy=0;entryX=0;entryY=0.5;entryDx=0;entryDy=0;" edge="1" parent="1" source="11V3AMWHq4y9PStT7rWr-14" target="11V3AMWHq4y9PStT7rWr-23">
          <mxGeometry relative="1" as="geometry" />
        </mxCell>
        <mxCell id="11V3AMWHq4y9PStT7rWr-14" value="&lt;font style=&quot;font-size: 65px;&quot;&gt;+&lt;/font&gt;" style="ellipse;whiteSpace=wrap;html=1;aspect=fixed;" vertex="1" parent="1">
          <mxGeometry x="540" y="272.5" width="45" height="45" as="geometry" />
        </mxCell>
        <mxCell id="11V3AMWHq4y9PStT7rWr-22" style="edgeStyle=orthogonalEdgeStyle;rounded=0;orthogonalLoop=1;jettySize=auto;html=1;exitX=1;exitY=0.5;exitDx=0;exitDy=0;entryX=0;entryY=0.5;entryDx=0;entryDy=0;" edge="1" parent="1" source="11V3AMWHq4y9PStT7rWr-15" target="11V3AMWHq4y9PStT7rWr-21">
          <mxGeometry relative="1" as="geometry" />
        </mxCell>
        <mxCell id="11V3AMWHq4y9PStT7rWr-15" value="&lt;font style=&quot;font-size: 65px;&quot;&gt;+&lt;/font&gt;" style="ellipse;whiteSpace=wrap;html=1;aspect=fixed;" vertex="1" parent="1">
          <mxGeometry x="480" y="112.5" width="45" height="45" as="geometry" />
        </mxCell>
        <mxCell id="11V3AMWHq4y9PStT7rWr-21" value="y(2k)" style="ellipse;whiteSpace=wrap;html=1;" vertex="1" parent="1">
          <mxGeometry x="680" y="115" width="70" height="40" as="geometry" />
        </mxCell>
        <mxCell id="11V3AMWHq4y9PStT7rWr-23" value="y(2k+1)" style="ellipse;whiteSpace=wrap;html=1;" vertex="1" parent="1">
          <mxGeometry x="680" y="275" width="70" height="40" as="geometry" />
        </mxCell>
      </root>
    </mxGraphModel>
  </diagram>
</mxfile>
